<?xml version="1.0" encoding="UTF-8"?>
<svg id="Capa_1" data-name="Capa 1" xmlns="http://www.w3.org/2000/svg" viewBox="0 0 154.62 157.43">
  <defs>
    <style>
      .cls-1 {
        fill: #53a5db;
      }

      .cls-1, .cls-2, .cls-3 {
        stroke-width: 0px;
      }

      .cls-2 {
        fill: #c6e0f2;
      }

      .cls-3 {
        fill: #fefdfe;
      }
    </style>
  </defs>
  <path class="cls-3" d="M1.1,84.34c.82,3.88,2.72,6.87,6.74,8.07,3.77,4.53,7.53,9.08,11.33,13.59.89,1.06,1.08,1.99.53,3.34-2.26,5.54-4.39,11.14-6.56,16.72-1.29,3.32-.79,4.14,2.62,4.17,7.52.07,15.03.12,22.55.16,1.03,0,2.19.26,3.03-.48,1.38-1.21,1.81-.48,1.94.84.38,3.78,2,7.11,3.62,10.45-.69,2.28,1.88,3.25,2.09,4.95.42,3.31,2.16,4.11,5.05,3.67,10.63,8.21,22.65,9.49,34.82,5.26,11.08-3.85,18.07-12.12,19.95-24.15.26-1.68.94-3.12,2.91-1.32.77.7,1.72.72,2.68.72,7.43-.01,14.86,0,22.29-.02,3.26-.01,3.72-.82,2.05-3.75-2.26-3.97-4.55-7.93-6.96-11.82-.97-1.56-.75-2.46.73-3.51,5.05-3.57,10.02-7.25,15.02-10.88,4,.13,4.36-.13,4.58-3.33,3.44-2.75,3.38-3.38-.57-5.37-2.63-1.33-5.29-2.62-7.91-3.97-6.83-3.51-13.65-7.05-21.27-10.99.91-.47,1.41-.61,1.75-.91,7.25-6.36,14.5-12.73,21.72-19.14.94-.84,2.48-1.53,1.93-3.18-.55-1.63-2.19-1.2-3.44-1.37-9.71-1.34-19.42-2.73-29.15-3.91-2.2-.27-2.13-1.24-1.72-2.81,2.47-9.5,4.93-19.01,7.4-28.51.28-1.08.98-2.23-.16-3.18-1.12-.93-2.15-.09-3.16.38-10.04,4.59-20.11,9.11-30.09,13.82-2.41,1.14-3.9.98-5.83-1.04-7.89-8.25-15.99-16.3-24.01-24.42-1.12-1.13-2.2-2.9-3.93-2.28-1.97.71-1.02,2.86-1.08,4.35-.38,9.54-.69,19.09-.88,28.64-.04,2.16-.77,2.45-2.74,2.16-9.7-1.42-19.43-2.67-29.15-4.02-3.36-.47-3.94.15-2.69,3.23,4.32,10.69,8.59,21.4,13.06,32.03.95,2.26.43,3.14-1.7,3.89-8.7,3.09-17.37,6.27-26.04,9.43-2.89,1.05-3.12,1.86-1.38,4.5Z"/>
  <path class="cls-1" d="M46.9,141.2c-1.63-3.34-3.24-6.67-3.62-10.45-.13-1.32-.56-2.05-1.94-.84-.84.73-2,.48-3.03.48-7.52-.04-15.03-.09-22.55-.16-3.4-.03-3.91-.85-2.62-4.17,2.17-5.58,4.3-11.18,6.56-16.72.55-1.35.36-2.28-.53-3.34-3.81-4.51-7.56-9.06-11.33-13.59-2.03-2.87-4.12-5.69-6.74-8.07-1.74-2.65-1.5-3.45,1.38-4.5,8.67-3.16,17.34-6.35,26.04-9.43,2.13-.75,2.65-1.63,1.7-3.89-4.46-10.63-8.74-21.34-13.06-32.03-1.24-3.08-.66-3.69,2.69-3.23,9.71,1.35,19.44,2.6,29.15,4.02,1.96.29,2.69,0,2.74-2.16.2-9.55.5-19.09.88-28.64.06-1.49-.89-3.64,1.08-4.35,1.72-.62,2.81,1.15,3.93,2.28,8.02,8.12,16.13,16.16,24.01,24.42,1.93,2.02,3.42,2.18,5.83,1.04,9.98-4.71,20.05-9.23,30.09-13.82,1.01-.46,2.04-1.31,3.16-.38,1.14.95.44,2.1.16,3.18-2.47,9.5-4.93,19.01-7.4,28.51-.41,1.56-.48,2.54,1.72,2.81,9.73,1.18,19.44,2.58,29.15,3.91,1.25.17,2.89-.26,3.44,1.37.55,1.65-.99,2.34-1.93,3.18-7.21,6.41-14.46,12.77-21.72,19.14-.35.31-.84.45-1.75.91,7.61,3.93,14.43,7.47,21.27,10.99,2.62,1.35,5.28,2.64,7.91,3.97,3.94,2,4,2.62.57,5.37-1.77.77-3.24,1.96-4.58,3.33-5,3.64-9.97,7.32-15.02,10.88-1.48,1.05-1.7,1.95-.73,3.51,2.41,3.88,4.7,7.84,6.96,11.82,1.67,2.94,1.21,3.74-2.05,3.75-7.43.02-14.86,0-22.29.02-.97,0-1.91-.02-2.68-.72-1.98-1.79-2.65-.36-2.91,1.32-1.88,12.03-8.87,20.3-19.95,24.15-12.17,4.23-24.19,2.96-34.82-5.26-2.46-2.81-5.07-5.49-7.15-8.62ZM73.12,83.9l-.04-.09c0-.92-.11-1.79-1.16-2.14-.4-.62-.81-1.23-1.21-1.85-.41-1.32-1.41-1.71-2.66-1.71-3.28-.97-6.56-1.94-9.83-2.91-1.92-1.32-4.41-.98-6.38-2.27-2.84-1.86-3.29-5.2-.87-7.16,1.59-1.29,3.36-1.18,5.15-.68,5.85,1.65,11.69,3.33,17.52,5.04,1.69.5,3.37.59,5.05.1,3.19-.93,6.35-1.94,9.54-2.87,3.01-.87,6.01-1.79,9.07-2.48,2.63-.59,5.23.89,5.77,3.02.66,2.56-.27,4.17-3.2,5.35-1.66.67-3.36,1.22-5.04,1.82-2.92.84-5.8,1.89-8.78,2.45-3.67.7-5.61,3.13-6.8,6.25-1.15,3.01-1.45,6.39.31,9.12,1.49,2.3,4.42.66,6.68,1.04,2.11.35,4.39-.68,6.36.81.04,1.76-1.03,2.3-2.56,2.3-2.42.01-4.85,0-7.45,0,3.49,3.67,8.61,4.61,13.19,2.84,2.4-.93,2.92-2.08,1.26-4.09.23-2.11,1.83-1.94,3.23-1.83,1.81.14,2.59-.78,2.98-2.36,1.23-5.07.06-9.42-3.82-12.98-.11-.35-.23-.71-.34-1.06.1-.42.21-.85.31-1.27.6-.15,1.23-.94,1.81-.25,1.42,1.66,3.75,2.51,4.11,5.17.15,1.14.55,2.55,1.63,3.49.95-.81.64-1.74.53-2.5-.44-2.98-.99-6.04-1.01-8.95-.02-4.27-2-7.79-3.2-11.54-1.13-3.54-3.96-6.4-6.78-8.96-2.72-2.46-6.16-3.78-9.46-5.16-4.49-1.86-9.35-1.83-14.09-1.49-10.53.75-18.44,5.73-23.7,15.03-3.11,5.5-2.97,11.92-5.34,17.67-1.11,2.69.03,6.23-.18,9.42-.11,1.65-.79,4.16.66,5.4,1.66,1.41,1.46,2.95,1.47,4.61.03,9.27-.16,18.54.09,27.8.28,9.89,4.71,17.65,12.88,23.29,7.16,4.94,15.27,5.28,23.35,4.22,14.85-1.96,22.93-13.61,23.99-25.61.59-6.63.12-13.36.13-20.05,0-4.11.08-8.22-.02-12.32-.02-.91,1.65-2.07.17-2.51-1.08-.32-.99,1.5-1.42,2.36-2.28,4.49-6.22,7.47-10.78,8.21-7.84,1.27-14.76-2.52-17.95-10.1-.85,1.39-1.6,2.83-2.55,4.13-3.81,5.19-13.49,8.1-18.23,5.36-8.28-4.79-11.78-11.6-8.78-21.11,1.13-3.59,3.45-5.69,6.5-5.59.05.38.09.77.14,1.15-.1.36-.2.73-.3,1.09-3.71,3.48-5.38,7.58-3.85,12.65-.04,2,.79,2.98,2.92,2.83,1.74-.12,3.26.97,1.81,2.43-1.88,1.89.02,1.95.74,2.35,2.18,1.22,4.5,1.37,7.06,1.47,3.4.14,5.67-1.02,8.5-3.25-2.8,0-4.97.02-7.14,0-1.18-.02-2.91.39-2.91-1.37,0-1.78,1.73-1.63,3.06-1.65,2.57-.05,5.13-.1,7.7-.16.33,0,.65,0,.98,0,2.4-1.94,2.33-4.53,1.87-7.22-.06-.39-.12-.77-.19-1.16.04-.6.04-1.19-.51-1.6ZM42.84,104.37c0-1.71,0-3.43,0-5.14,0-3.39,0-3.38-3.08-2.37-.44.14-.93.14-1.41.17-4.5.29-5.14.97-5.15,5.51,0,1.14-.02,2.29,0,3.43.05,3.25,1.21,4.46,4.43,4.64,1.29.07,2.49-.14,3.52,1.24.89,1.19,1.64.34,1.66-.91.04-2.19.01-4.38.01-6.57ZM109.4,104.02s-.01,0-.02,0c0,2.2-.05,4.39.02,6.59.03,1.16.51,2.44,1.8,1.16,1.41-1.39,2.95-1.34,4.63-1.34,1.48,0,2.81-.74,2.94-2.18.24-2.73.09-5.49.08-8.24,0-.58-.44-.88-.79-1.31-1.88-2.33-4.82-1.15-6.99-2.32-1.3-.7-1.69-.28-1.67,1.05.03,2.19,0,4.39,0,6.59ZM106.79,91.52c.8-1.89,1.05-3.78,0-5.62v5.62ZM75.08,80.16c.37.84.73,1.68,1.14,2.61.62-.9,1.09-1.7,1.19-2.73-.75-.17-1.47-.3-2.34.12Z"/>
  <path class="cls-2" d="M46.9,141.2c2.07,3.13,4.68,5.81,7.15,8.62-2.89.45-4.63-.36-5.05-3.67-.21-1.7-2.79-2.67-2.09-4.95Z"/>
  <path class="cls-2" d="M1.1,84.34c2.62,2.38,4.7,5.2,6.74,8.07-4.02-1.2-5.92-4.18-6.74-8.07Z"/>
  <path class="cls-2" d="M147.55,100.33c1.34-1.37,2.81-2.56,4.58-3.33-.23,3.21-.58,3.46-4.58,3.33Z"/>
  <path class="cls-2" d="M53.25,76.33c-3.05-.1-5.37,2-6.5,5.59-3,9.51.51,16.32,8.78,21.11,4.74,2.74,14.42-.17,18.23-5.36.95-1.29,1.7-2.74,2.55-4.13,3.18,7.58,10.1,11.37,17.95,10.1,4.56-.74,8.5-3.72,10.78-8.21.43-.85.34-2.68,1.42-2.36,1.48.44-.19,1.6-.17,2.51.1,4.1.02,8.21.02,12.32,0,6.69.46,13.42-.13,20.05-1.06,12-9.14,23.65-23.99,25.61-8.08,1.07-16.18.73-23.35-4.22-8.16-5.64-12.6-13.4-12.88-23.29-.26-9.26-.07-18.53-.09-27.8,0-1.66.19-3.19-1.47-4.61-1.46-1.24-.78-3.75-.66-5.4.22-3.19-.92-6.73.18-9.42,2.37-5.75,2.23-12.17,5.34-17.67,5.26-9.3,13.17-14.28,23.7-15.03,4.75-.34,9.61-.37,14.09,1.49,3.3,1.37,6.74,2.69,9.46,5.16,2.82,2.55,5.65,5.42,6.78,8.96,1.2,3.75,3.18,7.28,3.2,11.54.01,2.91.57,5.97,1.01,8.95.11.76.42,1.69-.53,2.5-1.08-.94-1.47-2.35-1.63-3.49-.36-2.66-2.69-3.51-4.11-5.17-.58-.68-1.21.1-1.81.25-1.32-1.18-3.03-.93-4.58-1.24,1.68-.6,3.39-1.15,5.04-1.82,2.93-1.18,3.85-2.78,3.2-5.35-.54-2.12-3.15-3.61-5.77-3.02-3.05.69-6.06,1.61-9.07,2.48-3.19.92-6.36,1.93-9.54,2.87-1.68.49-3.36.4-5.05-.1-5.83-1.71-11.67-3.39-17.52-5.04-1.78-.5-3.56-.61-5.15.68-2.42,1.96-1.97,5.3.87,7.16,1.97,1.29,4.46.95,6.38,2.27-1.83-.39-3.21,1.24-4.98,1.13ZM93.63,136.77c2.88-.03,5.02-2,4.6-4.62-.66-4.03-2.33-7.57-6.35-9.32-6.25-2.71-12.47-5.22-19.62-3.67-5.89,1.28-11.38,3.01-15.54,7.68-2.22,2.5-2.62,6.43-.81,8.61,1.54,1.86,4.3,1.8,7.54-.14.63-.38,1.72-1.24,1.95-.78,1.13,2.33,4.41,2.66,4.86,5.56.44,2.85,2.18,4.67,5.01,5.1,2.45.38,4.95-.43,5.68-2.81.84-2.74,2.88-4.21,4.53-6.15,1.27-1.49,2.17-3.14,4.14-.5.65.88,2.53,1.18,4.01,1.04ZM81.41,108.18s.03,0,.04,0c0-1.15.03-2.29,0-3.44-.03-.95.02-2.07-1.35-2.09-1.36-.01-1.38,1.07-1.39,2.05-.03,2.1.13,4.22-.08,6.3-.16,1.57-1.11,2.99-2.83,3.05-1.96.06-2.46-1.56-2.54-3.17-.11-2-.06-4.01-.05-6.02,0-1-.28-1.66-1.42-1.69-1.03-.03-1.65.32-1.63,1.45.04,2.48-.13,4.98.14,7.44.31,2.86,3.13,5.22,5.66,5.12,2.93-.12,5.23-2.43,5.46-5.57.08-1.14.01-2.29.01-3.44ZM91.71,143.93c0-2.07-2.46-4.14-4.89-4.12-2.64.02-4.62,2.09-4.59,4.81.03,2.51,2.1,4.61,4.54,4.59,2.65-.02,4.94-2.47,4.94-5.28ZM52.1,126.83c-1.09.1-1.49.94-1.87,1.85-2.32,5.63-.81,9.55,4.93,12.75.89.5,1.79,1.84,2.73,0,.79-1.53.15-2.17-1.26-2.78-3.97-1.73-4.88-3.77-3.83-8.02.18-.74.51-1.46.57-2.21.07-.8-.21-1.53-1.28-1.59ZM103.57,132.58c-.08-.42-.36-1.44-.44-2.47-.14-1.77-.87-3.69-2.65-3.22-2.07.54-.8,2.53-.38,3.9,1.11,3.62.2,5.83-3.13,7.53-.59.3-1.21.58-1.73.99-.78.6-.51,1.34-.06,2.03.29.45.45,1,1.26.86,3.78-.65,7.15-4.85,7.14-9.61ZM58.75,110.27c2.65-.05,5.04-.56,7.32-1.57.81-.36,1.15-.99.92-1.84-.23-.87-.89-1.32-1.72-.98-4.46,1.87-8.83,1.72-13.19-.33-.62-.29-1.34-.2-1.75.48-.39.65-.27,1.32.24,1.83.65.66,1.1,1.61,2.15,1.74,2.06.25,4.12.46,6.03.66ZM103,106.71c-1.28-1.55-2.62-2.22-4.58-1.05-1.04.62-2.31.74-3.54.95-2.73.46-5.29-.09-7.84-.88-1.07-.33-1.96-.26-2.37.82-.4,1.05.46,1.55,1.26,1.91,1.57.7,3.19,1.15,4.93,1.31,4.37.39,8.34-.72,12.13-3.06Z"/>
  <path class="cls-3" d="M94.83,75.07c1.56.31,3.26.06,4.58,1.24-.1.42-.21.85-.31,1.27-.32.49-.07.8.34,1.06,3.88,3.56,5.05,7.9,3.82,12.98-.39,1.59-1.17,2.51-2.98,2.36-1.41-.11-3-.28-3.23,1.82-1.79.96-3.08-.25-4.45-1.06-1.97-1.5-4.25-.46-6.36-.81-2.26-.37-5.19,1.26-6.68-1.04-1.77-2.73-1.47-6.11-.31-9.12,1.19-3.12,3.13-5.56,6.8-6.25,2.97-.57,5.86-1.62,8.78-2.45ZM92.71,83.55c-4.73-.82-1.05,2.98-2.07,4.25-.66.82-.74,1.76.2,2.52.51.42,1.15.39,1.55-.08.93-1.12,1.72-.71,2.61.01.54.44,1.19.6,1.79,0,.64-.63.74-1.41.24-2.06-.71-.93-.94-1.52-.11-2.69,1.05-1.48-.07-2.39-1.57-2.24-.8.08-1.59.51-2.64.29Z"/>
  <path class="cls-3" d="M53.25,76.33c1.77.11,3.14-1.52,4.98-1.13,3.28.97,6.55,1.94,9.83,2.91.36.84-1.55,1.25-.51,2.03.6.46,1.63,1.05,2.42-.07.13-.18.5-.18.75-.26.4.62.81,1.23,1.21,1.85-1.2.98-1.62,2.7-.59,3.4,1.93,1.31.11-1.53,1.24-1.47.18,0,.35.14.52.21,0,0,.04.09.04.09.01.58-.02,1.18.51,1.6.06.39.12.77.19,1.16-.21.93.17,2.14-1.31,2.44-1.05.21-1.09.69-.6,1.73.4.83.06,2.02.04,3.04-.33,0-.65,0-.98,0-.16-.35,0-1.18-.69-.86-2.45,1.14-5.09.77-7.46.35-2.33-.42-3.96,0-5.24,1.7-.55.73-1.25.98-1.46.42-.89-2.31-3.79-1.82-4.89-3.78-.38-.68-1.2-.88-2.01-.48-1.53-5.08.14-9.18,3.85-12.65.64-.21.68-.59.3-1.09-.05-.38-.09-.77-.14-1.15ZM60.58,90.62c.91.12,1.63-.32,1.59-1.18-.08-1.59-.62-3.06.11-4.76.38-.88-.88-1.99-2.09-1.17-1.02.69-1.73.89-2.7,0-.69-.63-1.42-.16-2.06.29-1.24-.76-2.46-.85-4.36.33,2.94-.09,2.99,2.68,4.87,3.19-.14.21-.29.41-.43.62-.48.44-1.06.82-1.42,1.35-.98,1.45.69,2.15,1.08,3.22.2.55,1.56.81,1.64.44.48-2.19,2.43-1.72,3.77-2.32Z"/>
  <path class="cls-2" d="M42.83,104.37c0,2.19.02,4.38-.01,6.57-.02,1.24-.78,2.1-1.66.91-1.03-1.39-2.23-1.17-3.52-1.24-3.22-.18-4.38-1.39-4.43-4.64-.02-1.14,0-2.29,0-3.43.01-4.54.65-5.22,5.15-5.51.47-.03.97-.02,1.41-.17,3.08-1.01,3.08-1.02,3.08,2.37,0,1.71,0,3.43,0,5.14Z"/>
  <path class="cls-2" d="M109.4,104.02c0-2.2.02-4.39,0-6.59-.02-1.33.37-1.76,1.67-1.05,2.17,1.17,5.11,0,6.99,2.32.35.43.79.73.79,1.31,0,2.75.16,5.51-.08,8.24-.13,1.44-1.46,2.18-2.94,2.18-1.68,0-3.22-.05-4.63,1.34-1.29,1.27-1.77,0-1.8-1.16-.06-2.19-.02-4.39-.02-6.59,0,0,.01,0,.02,0Z"/>
  <path class="cls-2" d="M49.22,91.23c.8-.4,1.62-.2,2.01.48,1.1,1.96,4.01,1.47,4.89,3.78.22.56.91.31,1.46-.42,1.28-1.7,2.91-2.12,5.24-1.7,2.37.43,5.01.8,7.46-.35.68-.32.52.51.69.86-2.57.05-5.13.11-7.7.16-1.33.02-3.06-.12-3.06,1.65,0,1.76,1.73,1.35,2.91,1.37,2.17.03,4.34,0,7.14,0-2.83,2.23-5.1,3.38-8.5,3.25-2.56-.1-4.88-.25-7.06-1.47-.72-.4-2.62-.46-.74-2.35,1.45-1.46-.07-2.55-1.81-2.43-2.13.14-2.96-.84-2.92-2.83Z"/>
  <path class="cls-2" d="M92.6,94.75c1.38.81,2.66,2.02,4.45,1.06,1.65,2.01,1.13,3.17-1.26,4.09-4.59,1.77-9.71.83-13.19-2.84,2.6,0,5.02,0,7.45,0,1.52,0,2.6-.54,2.56-2.3Z"/>
  <path class="cls-2" d="M71.95,93.88c.01-1.03.35-2.21-.04-3.04-.49-1.04-.45-1.51.6-1.73,1.48-.3,1.1-1.51,1.31-2.44.47,2.69.54,5.27-1.87,7.22Z"/>
  <path class="cls-2" d="M70.71,79.82c-.26.08-.63.08-.75.26-.79,1.11-1.82.52-2.42.07-1.04-.79.88-1.19.51-2.03,1.25,0,2.25.39,2.66,1.71Z"/>
  <path class="cls-2" d="M73.09,83.81c-.17-.07-.34-.2-.52-.21-1.13-.06.7,2.78-1.24,1.47-1.02-.7-.61-2.42.59-3.4,1.05.35,1.16,1.22,1.16,2.14Z"/>
  <path class="cls-2" d="M106.79,91.52v-5.62c1.05,1.85.8,3.73,0,5.62Z"/>
  <path class="cls-2" d="M75.08,80.16c.86-.42,1.58-.3,2.34-.12-.11,1.04-.58,1.83-1.19,2.73-.41-.94-.78-1.78-1.14-2.61Z"/>
  <path class="cls-2" d="M73.64,85.5c-.54-.42-.5-1.02-.51-1.6.56.41.55,1,.51,1.6Z"/>
  <path class="cls-2" d="M99.44,78.64c-.41-.26-.66-.57-.34-1.06.11.36.23.71.34,1.06Z"/>
  <path class="cls-2" d="M53.38,77.49c.37.5.33.88-.3,1.09.1-.36.2-.73.3-1.09Z"/>
  <path class="cls-1" d="M93.63,136.77c-1.48.14-3.36-.16-4.01-1.04-1.97-2.64-2.87-.99-4.14.5-1.65,1.94-3.69,3.41-4.53,6.15-.73,2.38-3.23,3.19-5.68,2.81-2.83-.43-4.58-2.25-5.01-5.1-.44-2.9-3.73-3.23-4.86-5.56-.23-.47-1.32.4-1.95.78-3.24,1.94-6,2-7.54.14-1.8-2.18-1.41-6.12.81-8.61,4.15-4.67,9.65-6.4,15.54-7.68,7.15-1.55,13.37.95,19.62,3.67,4.02,1.75,5.69,5.29,6.35,9.32.43,2.62-1.71,4.59-4.6,4.62ZM82.9,127.94c3.32,1.21,6.01,3.49,9.01,5.25.83.49,1.78,1.04,2.64.29.84-.74.44-1.79.16-2.69-.2-.63-.53-1.22-.86-1.8-.86-1.51-1.89-2.39-3.39-.67-1.33,1.53-2.75.89-4.05.07-.87-.55-1.56-1.38-2.33-2.09-.19-.38-.57-.68-.89-.47-1.43.89-2.82,1.45-4.48.52-1.6-.9-1.84-2.55-2.44-4.1-.02,2.51-1.19,4.13-3.55,4.53-2.21.37-3.63-.9-4.42-3.17-.95,4.46-1.26,4.75-5.38,5.05-.89-.29-1.48-1.74-2.58-1.01-1.3.85-2.1,2.31-2.34,3.77-.32,1.93,1.08,2.8,2.83,1.81,1.89-1.07,3.64-2.39,5.45-3.6,5.32-2.72,10.95-2.45,16.63-1.69Z"/>
  <path class="cls-1" d="M81.41,108.18c0,1.15.07,2.3-.01,3.44-.23,3.14-2.52,5.45-5.46,5.57-2.53.1-5.35-2.26-5.66-5.12-.26-2.46-.1-4.96-.14-7.44-.02-1.13.61-1.48,1.63-1.45,1.14.03,1.43.69,1.42,1.69-.01,2.01-.06,4.02.05,6.02.09,1.6.58,3.23,2.54,3.17,1.72-.06,2.68-1.48,2.83-3.05.21-2.08.05-4.2.08-6.3.01-.97.03-2.06,1.39-2.05,1.37.01,1.32,1.14,1.35,2.09.04,1.14,0,2.29,0,3.44-.01,0-.03,0-.04,0Z"/>
  <path class="cls-1" d="M91.71,143.93c0,2.81-2.29,5.26-4.94,5.28-2.44.02-4.51-2.08-4.54-4.59-.03-2.72,1.94-4.79,4.59-4.81,2.43-.02,4.89,2.05,4.89,4.12Z"/>
  <path class="cls-1" d="M52.1,126.83c1.07.07,1.35.79,1.28,1.59-.06.75-.39,1.47-.57,2.21-1.06,4.24-.14,6.29,3.83,8.02,1.41.62,2.05,1.25,1.26,2.78-.95,1.84-1.84.5-2.73,0-5.74-3.2-7.25-7.12-4.93-12.75.38-.91.78-1.75,1.87-1.85Z"/>
  <path class="cls-1" d="M103.57,132.58c0,4.75-3.37,8.96-7.14,9.61-.8.14-.97-.41-1.26-.86-.44-.68-.72-1.42.06-2.03.52-.4,1.14-.68,1.73-.99,3.33-1.7,4.23-3.91,3.13-7.53-.42-1.37-1.69-3.36.38-3.9,1.78-.47,2.51,1.45,2.65,3.22.08,1.04.36,2.05.44,2.47Z"/>
  <path class="cls-1" d="M58.75,110.27c-1.91-.21-3.97-.41-6.03-.66-1.05-.13-1.5-1.08-2.15-1.74-.51-.51-.63-1.18-.24-1.83.41-.68,1.14-.77,1.75-.48,4.36,2.05,8.73,2.19,13.19.33.83-.35,1.49.11,1.72.98.22.85-.11,1.48-.92,1.84-2.28,1.01-4.67,1.52-7.32,1.57Z"/>
  <path class="cls-1" d="M103,106.71c-3.8,2.34-7.76,3.45-12.13,3.06-1.74-.15-3.36-.6-4.93-1.31-.8-.36-1.66-.87-1.26-1.91.41-1.08,1.3-1.15,2.37-.82,2.55.78,5.11,1.33,7.84.88,1.23-.21,2.5-.33,3.54-.95,1.96-1.17,3.3-.5,4.58,1.05Z"/>
  <path class="cls-1" d="M92.71,83.55c1.05.23,1.84-.21,2.64-.29,1.49-.15,2.62.76,1.57,2.24-.83,1.16-.6,1.76.11,2.69.5.65.4,1.43-.24,2.06-.61.6-1.25.44-1.79,0-.9-.73-1.69-1.13-2.61-.01-.39.48-1.03.5-1.55.08-.93-.75-.86-1.7-.2-2.52,1.02-1.27-2.66-5.07,2.07-4.25Z"/>
  <path class="cls-1" d="M55.51,87.94c.14-.21.29-.41.43-.62.83-1.32-1.37-2.19-.51-3.52.64-.45,1.37-.92,2.06-.29.97.88,1.67.69,2.7,0,1.21-.82,2.46.29,2.09,1.17-.73,1.71-.19,3.17-.11,4.76.04.86-.67,1.3-1.59,1.18-.82-.33-1.16-1.71-2.58-.75-2.36,1.6-2.8.2-2.49-1.93Z"/>
  <path class="cls-2" d="M55.51,87.94c-.31,2.13.13,3.53,2.49,1.93,1.42-.96,1.76.42,2.58.75-1.34.6-3.28.13-3.77,2.32-.08.37-1.44.12-1.64-.44-.39-1.06-2.06-1.76-1.08-3.22.36-.53.94-.9,1.42-1.35Z"/>
  <path class="cls-2" d="M55.43,83.81c-.86,1.32,1.34,2.2.51,3.52-1.88-.51-1.93-3.28-4.87-3.19,1.9-1.18,3.12-1.09,4.36-.33Z"/>
  <path class="cls-2" d="M62.9,128.66c4.11-.3,4.43-.58,5.38-5.05.79,2.27,2.22,3.54,4.42,3.17,2.36-.4,3.53-2.02,3.55-4.53.59,1.54.84,3.2,2.44,4.1,1.66.93,3.05.37,4.48-.52.33-.2.71.1.89.47.02.84-.88,1.02-1.17,1.64-5.68-.77-11.3-1.03-16.63,1.69-.99-.77-2.46.12-3.37-.97Z"/>
  <path class="cls-3" d="M82.9,127.94c.3-.61,1.2-.79,1.17-1.64.77.71,1.46,1.54,2.33,2.09,1.3.83,2.72,1.46,4.05-.07,1.5-1.72,2.53-.84,3.39.67.33.58.66,1.17.86,1.8.28.9.68,1.96-.16,2.69-.86.75-1.8.21-2.64-.29-2.99-1.77-5.69-4.04-9.01-5.25Z"/>
  <path class="cls-3" d="M62.9,128.66c.9,1.09,2.37.2,3.37.97-1.81,1.21-3.56,2.53-5.45,3.6-1.76.99-3.15.12-2.83-1.81.24-1.47,1.04-2.92,2.34-3.77,1.1-.72,1.69.72,2.58,1.01Z"/>
</svg>